<svg width="200" height="200" viewBox="0 0 200 200" fill="none" xmlns="http://www.w3.org/2000/svg">
<path d="M100 0C155.228 0 200 44.7717 200 100C200 155.228 155.228 200 100 200C44.7715 200 0 155.228 0 100C0.000243274 44.7717 44.7717 0 100 0ZM119.881 19.2363C110.992 16.7159 99.3798 18.2653 93.5127 26.4365C91.0179 29.9118 90.0201 34.0589 90.751 38.3496C91.4815 42.6373 93.934 47.0475 98.3008 51.0693C105.96 58.1454 122.843 73.6492 130.318 79.9141C135.386 84.2154 137.999 89.7012 138.009 94.6377C138.018 99.4598 135.565 103.964 129.961 106.752C126.147 108.648 119.639 111.883 112.047 115.657V94.3701C112.105 91.4214 111.378 88.2728 109.79 85.833C105.506 79.2522 97.2125 81.0658 91.3662 83.917C71.9393 93.3923 53.9045 122.322 56.1982 145.344C56.4099 147.465 58.8158 148.387 60.5078 147.603C61.6319 147.081 85.4266 135.256 106.056 125.001V180.516C106.056 182.098 107.497 183.362 109.051 183.328C110.605 183.294 112.047 182.24 112.047 180.516V122.022C120.845 117.648 128.513 113.838 132.769 111.723L132.771 111.721C139.08 108.465 144.014 102.355 144 94.6279C143.987 87.8813 140.472 80.947 134.339 75.7412L134.324 75.7305C123.46 66.509 112.99 56.7473 102.501 47.0566C98.939 43.7771 97.1699 40.4752 96.6699 37.4707C94.8511 26.5358 107.778 22.7846 115.7 24.1074C115.335 28.6172 115.887 32.035 117.204 34.707C120.191 40.7678 128.044 44.3322 133.615 39.8164C136.935 37.1243 137.114 32.6833 134.853 29.1631C130.348 22.1505 122.92 20.0982 119.881 19.2363ZM94.1318 88.9082C100.108 85.9936 106.055 85.9881 106.056 94.3652V118.637C89.6546 126.791 70.4437 136.337 62.0713 140.48C62.9938 120.865 77.1854 97.1737 94.1318 88.9082ZM137.886 40.3848C136.571 40.3005 136.151 41.5504 135 42.3066C133.849 43.0629 131.972 43.3877 131.981 44.9336C131.985 45.4967 132.288 46.0419 132.883 46.3457C134.983 47.6137 136.666 49.5158 138.227 51.4385C139.123 52.4676 141.224 52.2234 141.352 50.6016C141.475 48.6771 141.33 46.6404 140.787 44.792C140.363 43.3476 139.663 40.4996 137.886 40.3848ZM121.604 25.6748C124.632 26.865 130.172 29.9132 130.413 33.9355C130.449 34.5347 130.261 35.1027 129.698 35.5596C128.475 36.5511 127.042 36.3926 125.726 35.6445C122.239 33.663 121.443 29.5384 121.604 25.6748Z" fill="#DC0B5B"/>
</svg>