<svg width="300" height="236" viewBox="0 0 300 236" fill="none" xmlns="http://www.w3.org/2000/svg">
<g clip-path="url(#clip0_9_600)">
<mask id="mask0_9_600" style="mask-type:luminance" maskUnits="userSpaceOnUse" x="0" y="0" width="300" height="236">
<path d="M300 0H0V236H300V0Z" fill="white"/>
</mask>
<g mask="url(#mask0_9_600)">
<mask id="mask1_9_600" style="mask-type:luminance" maskUnits="userSpaceOnUse" x="-18" y="-14" width="336" height="264">
<path d="M318 -14H-18V250H318V-14Z" fill="white"/>
</mask>
<g mask="url(#mask1_9_600)">
<mask id="mask2_9_600" style="mask-type:luminance" maskUnits="userSpaceOnUse" x="-379" y="-291" width="1057" height="817">
<path d="M-378.822 -290.547H677.178V525.453H-378.822V-290.547Z" fill="white"/>
</mask>
<g mask="url(#mask2_9_600)">
<path d="M16.9976 209.248C16.9976 210.025 16.8803 210.741 16.647 211.393C16.4123 212.048 16.063 212.614 15.6016 213.094C15.139 213.576 14.5616 213.953 13.871 214.224C13.1816 214.494 12.3856 214.63 11.4856 214.63C10.5723 214.63 9.77093 214.494 9.08153 214.224C8.38953 213.953 7.81493 213.576 7.35223 213.094C6.88953 212.614 6.54153 212.048 6.30693 211.393C6.07223 210.741 5.95493 210.025 5.95493 209.248V201.202H8.84153V209.137C8.84153 209.545 8.90553 209.92 9.03493 210.265C9.16423 210.61 9.34693 210.909 9.58023 211.162C9.81353 211.416 10.095 211.613 10.423 211.754C10.7483 211.897 11.1043 211.968 11.4856 211.968C11.8683 211.968 12.219 211.897 12.5403 211.754C12.8603 211.613 13.1376 211.416 13.3723 211.162C13.607 210.909 13.7883 210.61 13.9176 210.265C14.047 209.92 14.1123 209.545 14.1123 209.137V201.202H16.9976V209.248Z" fill="#222222"/>
</g>
<mask id="mask3_9_600" style="mask-type:luminance" maskUnits="userSpaceOnUse" x="-379" y="-291" width="1057" height="817">
<path d="M-378.822 -290.547H677.178V525.453H-378.822V-290.547Z" fill="white"/>
</mask>
<g mask="url(#mask3_9_600)">
<path d="M19.0709 212.707C19.0709 212.473 19.1136 212.251 19.2003 212.041C19.2869 211.832 19.4069 211.651 19.5603 211.495C19.7149 211.341 19.8963 211.221 20.1069 211.135C20.3163 211.049 20.5376 211.005 20.7723 211.005C21.0056 211.005 21.2283 211.049 21.4389 211.135C21.6469 211.221 21.8296 211.341 21.9829 211.495C22.1376 211.651 22.2589 211.832 22.3443 212.041C22.4309 212.251 22.4736 212.473 22.4736 212.707C22.4736 212.941 22.4309 213.164 22.3443 213.372C22.2589 213.583 22.1376 213.764 21.9829 213.919C21.8296 214.073 21.6469 214.193 21.4389 214.28C21.2283 214.364 21.0056 214.408 20.7723 214.408C20.5376 214.408 20.3163 214.364 20.1069 214.28C19.8963 214.193 19.7149 214.073 19.5603 213.919C19.4069 213.764 19.2869 213.583 19.2003 213.372C19.1136 213.164 19.0709 212.941 19.0709 212.707Z" fill="#222222"/>
</g>
<mask id="mask4_9_600" style="mask-type:luminance" maskUnits="userSpaceOnUse" x="-379" y="-291" width="1057" height="817">
<path d="M-378.822 -290.547H677.178V525.453H-378.822V-290.547Z" fill="white"/>
</mask>
<g mask="url(#mask4_9_600)">
<path d="M33.4057 204.402C33.171 204.106 32.8537 203.887 32.4524 203.745C32.051 203.605 31.6724 203.533 31.315 203.533C31.1044 203.533 30.8897 203.558 30.6684 203.607C30.4457 203.657 30.2364 203.734 30.039 203.838C29.8404 203.943 29.6804 204.082 29.559 204.255C29.435 204.427 29.3724 204.637 29.3724 204.883C29.3724 205.278 29.5204 205.579 29.8164 205.789C30.1137 205.999 30.4844 206.177 30.9364 206.326C31.3857 206.474 31.871 206.622 32.3884 206.77C32.9057 206.918 33.3884 207.129 33.839 207.399C34.2897 207.67 34.6617 208.034 34.959 208.489C35.255 208.946 35.403 209.557 35.403 210.321C35.403 211.049 35.2657 211.683 34.995 212.226C34.7244 212.769 34.3577 213.219 33.895 213.577C33.4324 213.934 32.8964 214.199 32.2857 214.371C31.675 214.543 31.0324 214.63 30.3537 214.63C29.5017 214.63 28.7124 214.501 27.9857 214.242C27.2577 213.983 26.5804 213.563 25.951 212.985L28.0044 210.727C28.299 211.122 28.6737 211.429 29.123 211.643C29.5737 211.859 30.039 211.967 30.519 211.967C30.7537 211.967 30.991 211.939 31.2324 211.883C31.4724 211.829 31.687 211.746 31.8777 211.634C32.0697 211.523 32.2244 211.382 32.3417 211.209C32.459 211.035 32.5164 210.833 32.5164 210.598C32.5164 210.203 32.3657 209.893 32.0644 209.665C31.7617 209.437 31.383 209.242 30.9257 209.082C30.4697 208.922 29.9764 208.762 29.447 208.602C28.9164 208.441 28.423 208.225 27.967 207.954C27.511 207.683 27.131 207.325 26.8297 206.881C26.527 206.437 26.3764 205.851 26.3764 205.123C26.3764 204.422 26.515 203.805 26.7924 203.274C27.0697 202.745 27.4404 202.301 27.9017 201.943C28.3644 201.585 28.8977 201.317 29.5017 201.138C30.1057 200.959 30.7297 200.87 31.3697 200.87C32.111 200.87 32.8257 200.974 33.5164 201.185C34.2057 201.394 34.8284 201.746 35.383 202.238L33.4057 204.402Z" fill="#222222"/>
</g>
<mask id="mask5_9_600" style="mask-type:luminance" maskUnits="userSpaceOnUse" x="-379" y="-291" width="1057" height="817">
<path d="M-378.822 -290.547H677.178V525.453H-378.822V-290.547Z" fill="white"/>
</mask>
<g mask="url(#mask5_9_600)">
<path d="M37.3638 212.707C37.3638 212.473 37.4078 212.251 37.4932 212.041C37.5812 211.832 37.6998 211.651 37.8545 211.495C38.0092 211.341 38.1892 211.221 38.3998 211.135C38.6105 211.049 38.8318 211.005 39.0652 211.005C39.2985 211.005 39.5212 211.049 39.7332 211.135C39.9412 211.221 40.1225 211.341 40.2772 211.495C40.4318 211.651 40.5518 211.832 40.6385 212.041C40.7238 212.251 40.7678 212.473 40.7678 212.707C40.7678 212.941 40.7238 213.164 40.6385 213.372C40.5518 213.583 40.4318 213.764 40.2772 213.919C40.1225 214.073 39.9412 214.193 39.7332 214.28C39.5212 214.364 39.2985 214.408 39.0652 214.408C38.8318 214.408 38.6105 214.364 38.3998 214.28C38.1892 214.193 38.0092 214.073 37.8545 213.919C37.6998 213.764 37.5812 213.583 37.4932 213.372C37.4078 213.164 37.3638 212.941 37.3638 212.707Z" fill="#222222"/>
</g>
<mask id="mask6_9_600" style="mask-type:luminance" maskUnits="userSpaceOnUse" x="-379" y="-291" width="1057" height="817">
<path d="M-378.822 -290.547H677.178V525.453H-378.822V-290.547Z" fill="white"/>
</mask>
<g mask="url(#mask6_9_600)">
<path d="M60.5014 204.606C60.2174 204.261 59.8694 203.995 59.4561 203.81C59.0441 203.626 58.5668 203.533 58.0228 203.533C57.4801 203.533 56.9788 203.638 56.5161 203.847C56.0534 204.058 55.6534 204.35 55.3134 204.726C54.9748 205.103 54.7081 205.549 54.5174 206.066C54.3268 206.585 54.2308 207.146 54.2308 207.75C54.2308 208.367 54.3268 208.93 54.5174 209.443C54.7081 209.955 54.9721 210.399 55.3041 210.774C55.6374 211.151 56.0281 211.443 56.4788 211.653C56.9294 211.863 57.4134 211.967 57.9321 211.967C58.5227 211.967 59.0467 211.843 59.5027 211.597C59.9601 211.351 60.3348 211.005 60.6308 210.562L63.0347 212.355C62.4801 213.133 61.7787 213.706 60.9267 214.075C60.0761 214.446 59.2014 214.63 58.3001 214.63C57.2774 214.63 56.3348 214.47 55.4708 214.149C54.6081 213.829 53.8628 213.37 53.2321 212.771C52.6041 212.174 52.1148 211.449 51.7614 210.599C51.4108 209.747 51.2361 208.799 51.2361 207.75C51.2361 206.702 51.4108 205.753 51.7614 204.902C52.1148 204.051 52.6041 203.327 53.2321 202.729C53.8628 202.13 54.6081 201.671 55.4708 201.351C56.3348 201.03 57.2774 200.87 58.3001 200.87C58.6708 200.87 59.0561 200.903 59.4561 200.971C59.8561 201.041 60.2508 201.147 60.6401 201.295C61.0294 201.442 61.4014 201.639 61.7587 201.887C62.1161 202.134 62.4361 202.435 62.7201 202.794L60.5014 204.606Z" fill="#222222"/>
</g>
<mask id="mask7_9_600" style="mask-type:luminance" maskUnits="userSpaceOnUse" x="-379" y="-291" width="1057" height="817">
<path d="M-378.822 -290.547H677.178V525.453H-378.822V-290.547Z" fill="white"/>
</mask>
<g mask="url(#mask7_9_600)">
<path d="M66.7123 201.202H75.6096V203.865H69.5976V206.308H75.2763V208.97H69.5976V211.634H75.9416V214.297H66.7123V201.202Z" fill="#222222"/>
</g>
<mask id="mask8_9_600" style="mask-type:luminance" maskUnits="userSpaceOnUse" x="-379" y="-291" width="1057" height="817">
<path d="M-378.822 -290.547H677.178V525.453H-378.822V-290.547Z" fill="white"/>
</mask>
<g mask="url(#mask8_9_600)">
<path d="M80.4395 201.202H84.362L89.927 210.302H89.965V201.202H92.85V214.297H89.077L83.363 204.976H83.325V214.297H80.4395V201.202Z" fill="#222222"/>
</g>
<mask id="mask9_9_600" style="mask-type:luminance" maskUnits="userSpaceOnUse" x="-379" y="-291" width="1057" height="817">
<path d="M-378.822 -290.547H677.178V525.453H-378.822V-290.547Z" fill="white"/>
</mask>
<g mask="url(#mask9_9_600)">
<path d="M99.957 203.754H96.222V201.202H106.58V203.754H102.844V214.297H99.957V203.754Z" fill="#222222"/>
</g>
<mask id="mask10_9_600" style="mask-type:luminance" maskUnits="userSpaceOnUse" x="-379" y="-291" width="1057" height="817">
<path d="M-378.822 -290.547H677.178V525.453H-378.822V-290.547Z" fill="white"/>
</mask>
<g mask="url(#mask10_9_600)">
<path d="M110.015 201.202H118.912V203.865H112.902V206.308H118.579V208.97H112.902V211.634H119.244V214.297H110.015V201.202Z" fill="#222222"/>
</g>
<mask id="mask11_9_600" style="mask-type:luminance" maskUnits="userSpaceOnUse" x="-379" y="-291" width="1057" height="817">
<path d="M-378.822 -290.547H677.178V525.453H-378.822V-290.547Z" fill="white"/>
</mask>
<g mask="url(#mask11_9_600)">
<path d="M126.444 206.622H128.144C128.404 206.622 128.678 206.612 128.968 206.594C129.257 206.576 129.52 206.521 129.754 206.428C129.988 206.334 130.182 206.19 130.337 205.993C130.489 205.796 130.566 205.518 130.566 205.161C130.566 204.828 130.5 204.564 130.365 204.366C130.229 204.169 130.056 204.017 129.848 203.912C129.637 203.808 129.396 203.736 129.125 203.698C128.853 203.662 128.588 203.644 128.33 203.644H126.444V206.622ZM123.557 201.202H128.626C129.292 201.202 129.924 201.266 130.521 201.397C131.12 201.526 131.642 201.742 132.094 202.044C132.544 202.346 132.901 202.753 133.165 203.265C133.432 203.776 133.564 204.414 133.564 205.178C133.564 206.104 133.322 206.889 132.842 207.537C132.361 208.185 131.658 208.594 130.734 208.768L134.064 214.297H130.605L127.868 209.064H126.444V214.297H123.557V201.202Z" fill="#222222"/>
</g>
<mask id="mask12_9_600" style="mask-type:luminance" maskUnits="userSpaceOnUse" x="-379" y="-291" width="1057" height="817">
<path d="M-378.822 -290.547H677.178V525.453H-378.822V-290.547Z" fill="white"/>
</mask>
<g mask="url(#mask12_9_600)">
<path d="M144.121 204.402C143.887 204.106 143.569 203.887 143.169 203.745C142.769 203.605 142.389 203.533 142.031 203.533C141.823 203.533 141.605 203.558 141.384 203.607C141.161 203.657 140.953 203.734 140.755 203.838C140.557 203.943 140.397 204.082 140.275 204.255C140.152 204.427 140.089 204.637 140.089 204.883C140.089 205.278 140.237 205.579 140.533 205.789C140.829 205.999 141.203 206.177 141.652 206.326C142.103 206.474 142.587 206.622 143.105 206.77C143.623 206.918 144.105 207.129 144.556 207.399C145.007 207.67 145.379 208.034 145.675 208.489C145.972 208.946 146.119 209.557 146.119 210.321C146.119 211.049 145.984 211.683 145.712 212.226C145.441 212.769 145.073 213.219 144.612 213.577C144.149 213.934 143.613 214.199 143.003 214.371C142.392 214.543 141.748 214.63 141.071 214.63C140.22 214.63 139.431 214.501 138.703 214.242C137.975 213.983 137.296 213.563 136.668 212.985L138.721 210.727C139.017 211.122 139.389 211.429 139.84 211.643C140.289 211.859 140.755 211.967 141.236 211.967C141.472 211.967 141.709 211.939 141.949 211.883C142.189 211.829 142.405 211.746 142.596 211.634C142.787 211.523 142.941 211.382 143.059 211.209C143.175 211.035 143.233 210.833 143.233 210.598C143.233 210.203 143.083 209.893 142.781 209.665C142.477 209.437 142.099 209.242 141.644 209.082C141.188 208.922 140.693 208.762 140.163 208.602C139.635 208.441 139.14 208.225 138.684 207.954C138.228 207.683 137.848 207.325 137.547 206.881C137.245 206.437 137.092 205.851 137.092 205.123C137.092 204.422 137.232 203.805 137.509 203.274C137.787 202.745 138.157 202.301 138.62 201.943C139.081 201.585 139.615 201.317 140.22 201.138C140.824 200.959 141.445 200.87 142.088 200.87C142.827 200.87 143.543 200.974 144.232 201.185C144.924 201.394 145.545 201.746 146.1 202.238L144.121 204.402Z" fill="#222222"/>
</g>
<mask id="mask13_9_600" style="mask-type:luminance" maskUnits="userSpaceOnUse" x="-379" y="-291" width="1057" height="817">
<path d="M-378.822 -290.547H677.178V525.453H-378.822V-290.547Z" fill="white"/>
</mask>
<g mask="url(#mask13_9_600)">
<path d="M157.179 201.202H165.964V203.865H160.066V206.529H165.52V209.192H160.066V214.297H157.179V201.202Z" fill="#222222"/>
</g>
<mask id="mask14_9_600" style="mask-type:luminance" maskUnits="userSpaceOnUse" x="-379" y="-291" width="1057" height="817">
<path d="M-378.822 -290.547H677.178V525.453H-378.822V-290.547Z" fill="white"/>
</mask>
<g mask="url(#mask14_9_600)">
<path d="M171.703 207.75C171.703 208.367 171.799 208.93 171.99 209.443C172.181 209.955 172.455 210.399 172.813 210.774C173.17 211.151 173.598 211.443 174.099 211.653C174.597 211.863 175.155 211.967 175.773 211.967C176.387 211.967 176.946 211.863 177.446 211.653C177.946 211.443 178.374 211.151 178.733 210.774C179.09 210.399 179.363 209.955 179.554 209.443C179.746 208.93 179.842 208.367 179.842 207.75C179.842 207.146 179.746 206.585 179.554 206.066C179.363 205.549 179.09 205.102 178.733 204.726C178.374 204.35 177.946 204.058 177.446 203.847C176.946 203.638 176.387 203.533 175.773 203.533C175.155 203.533 174.597 203.638 174.099 203.847C173.598 204.058 173.17 204.35 172.813 204.726C172.455 205.102 172.181 205.549 171.99 206.066C171.799 206.585 171.703 207.146 171.703 207.75ZM168.706 207.75C168.706 206.702 168.882 205.753 169.234 204.902C169.586 204.051 170.077 203.327 170.703 202.729C171.333 202.13 172.079 201.671 172.943 201.351C173.805 201.03 174.75 200.87 175.773 200.87C176.795 200.87 177.738 201.03 178.602 201.351C179.465 201.671 180.21 202.13 180.841 202.729C181.469 203.327 181.959 204.051 182.311 204.902C182.662 205.753 182.837 206.702 182.837 207.75C182.837 208.799 182.662 209.747 182.311 210.598C181.959 211.449 181.469 212.174 180.841 212.771C180.21 213.37 179.465 213.829 178.602 214.149C177.738 214.47 176.795 214.63 175.773 214.63C174.75 214.63 173.805 214.47 172.943 214.149C172.079 213.829 171.333 213.37 170.703 212.771C170.077 212.174 169.586 211.449 169.234 210.598C168.882 209.747 168.706 208.799 168.706 207.75Z" fill="#222222"/>
</g>
<mask id="mask15_9_600" style="mask-type:luminance" maskUnits="userSpaceOnUse" x="-379" y="-291" width="1057" height="817">
<path d="M-378.822 -290.547H677.178V525.453H-378.822V-290.547Z" fill="white"/>
</mask>
<g mask="url(#mask15_9_600)">
<path d="M188.786 206.622H190.488C190.746 206.622 191.021 206.612 191.31 206.594C191.6 206.576 191.862 206.521 192.097 206.428C192.33 206.334 192.525 206.19 192.678 205.993C192.833 205.796 192.91 205.518 192.91 205.161C192.91 204.828 192.842 204.564 192.708 204.366C192.572 204.169 192.398 204.017 192.189 203.912C191.98 203.808 191.738 203.736 191.468 203.698C191.196 203.662 190.932 203.644 190.673 203.644H188.786V206.622ZM185.9 201.202H190.968C191.634 201.202 192.266 201.266 192.865 201.397C193.462 201.526 193.985 201.742 194.436 202.044C194.886 202.346 195.244 202.753 195.509 203.265C195.774 203.776 195.906 204.414 195.906 205.178C195.906 206.104 195.666 206.889 195.185 207.537C194.704 208.185 194.001 208.594 193.077 208.768L196.406 214.297H192.948L190.209 209.064H188.786V214.297H185.9V201.202Z" fill="#222222"/>
</g>
<mask id="mask16_9_600" style="mask-type:luminance" maskUnits="userSpaceOnUse" x="-379" y="-291" width="1057" height="817">
<path d="M-378.822 -290.547H677.178V525.453H-378.822V-290.547Z" fill="white"/>
</mask>
<g mask="url(#mask16_9_600)">
<path d="M209.575 211.635H211.072C211.739 211.635 212.357 211.567 212.932 211.431C213.504 211.296 214.001 211.069 214.42 210.756C214.839 210.441 215.169 210.028 215.409 209.516C215.649 209.005 215.769 208.379 215.769 207.639C215.769 206.997 215.649 206.44 215.409 205.965C215.169 205.491 214.845 205.099 214.439 204.791C214.032 204.484 213.553 204.251 213.005 204.097C212.457 203.943 211.88 203.865 211.276 203.865H209.575V211.635ZM206.688 201.203H211.017C212.064 201.203 213.06 201.32 214.004 201.553C214.947 201.788 215.769 202.168 216.473 202.692C217.176 203.215 217.733 203.896 218.147 204.735C218.559 205.573 218.767 206.592 218.767 207.788C218.767 208.848 218.565 209.783 218.165 210.589C217.764 211.397 217.225 212.075 216.547 212.624C215.869 213.172 215.087 213.589 214.199 213.872C213.309 214.156 212.38 214.297 211.405 214.297H206.688V201.203Z" fill="#222222"/>
</g>
<mask id="mask17_9_600" style="mask-type:luminance" maskUnits="userSpaceOnUse" x="-379" y="-291" width="1057" height="817">
<path d="M-378.822 -290.547H677.178V525.453H-378.822V-290.547Z" fill="white"/>
</mask>
<g mask="url(#mask17_9_600)">
<path d="M222.349 201.203H225.234V214.297H222.349V201.203Z" fill="#222222"/>
</g>
<mask id="mask18_9_600" style="mask-type:luminance" maskUnits="userSpaceOnUse" x="-379" y="-291" width="1057" height="817">
<path d="M-378.822 -290.547H677.178V525.453H-378.822V-290.547Z" fill="white"/>
</mask>
<g mask="url(#mask18_9_600)">
<path d="M236.943 204.402C236.708 204.106 236.391 203.887 235.989 203.745C235.589 203.605 235.211 203.533 234.852 203.533C234.643 203.533 234.427 203.558 234.205 203.607C233.983 203.657 233.773 203.734 233.576 203.838C233.379 203.943 233.219 204.082 233.096 204.255C232.972 204.427 232.911 204.637 232.911 204.883C232.911 205.278 233.059 205.579 233.355 205.789C233.651 205.999 234.023 206.177 234.473 206.326C234.924 206.474 235.408 206.622 235.925 206.77C236.444 206.918 236.927 207.129 237.377 207.399C237.827 207.67 238.2 208.034 238.496 208.489C238.792 208.946 238.94 209.557 238.94 210.321C238.94 211.049 238.804 211.683 238.533 212.226C238.261 212.769 237.895 213.219 237.433 213.577C236.969 213.934 236.435 214.199 235.823 214.371C235.212 214.543 234.569 214.63 233.891 214.63C233.04 214.63 232.251 214.501 231.523 214.242C230.795 213.983 230.117 213.563 229.488 212.985L231.543 210.727C231.837 211.122 232.211 211.429 232.661 211.643C233.111 211.859 233.576 211.967 234.056 211.967C234.292 211.967 234.529 211.939 234.769 211.883C235.011 211.829 235.225 211.746 235.416 211.634C235.608 211.523 235.763 211.382 235.879 211.209C235.996 211.035 236.055 210.833 236.055 210.598C236.055 210.203 235.904 209.893 235.601 209.665C235.299 209.437 234.92 209.242 234.464 209.082C234.008 208.922 233.515 208.762 232.984 208.602C232.455 208.441 231.96 208.225 231.505 207.954C231.048 207.683 230.668 207.325 230.367 206.881C230.065 206.437 229.913 205.851 229.913 205.123C229.913 204.422 230.053 203.805 230.331 203.274C230.608 202.745 230.977 202.301 231.44 201.943C231.903 201.585 232.436 201.317 233.04 201.138C233.644 200.959 234.267 200.87 234.908 200.87C235.648 200.87 236.363 200.974 237.053 201.185C237.744 201.394 238.367 201.746 238.921 202.238L236.943 204.402Z" fill="#222222"/>
</g>
<mask id="mask19_9_600" style="mask-type:luminance" maskUnits="userSpaceOnUse" x="-379" y="-291" width="1057" height="817">
<path d="M-378.822 -290.547H677.178V525.453H-378.822V-290.547Z" fill="white"/>
</mask>
<g mask="url(#mask19_9_600)">
<path d="M242.89 201.202H251.788V203.865H245.777V206.308H251.454V208.97H245.777V211.634H252.12V214.297H242.89V201.202Z" fill="#222222"/>
</g>
<mask id="mask20_9_600" style="mask-type:luminance" maskUnits="userSpaceOnUse" x="-379" y="-291" width="1057" height="817">
<path d="M-378.822 -290.547H677.178V525.453H-378.822V-290.547Z" fill="white"/>
</mask>
<g mask="url(#mask20_9_600)">
<path d="M261.544 205.012L259.954 209.082H263.154L261.544 205.012ZM260.434 201.203H262.82L268.516 214.298H265.262L264.134 211.524H259.047L257.955 214.298H254.775L260.434 201.203Z" fill="#222222"/>
</g>
<mask id="mask21_9_600" style="mask-type:luminance" maskUnits="userSpaceOnUse" x="-379" y="-291" width="1057" height="817">
<path d="M-378.822 -290.547H677.178V525.453H-378.822V-290.547Z" fill="white"/>
</mask>
<g mask="url(#mask21_9_600)">
<path d="M277.838 204.402C277.603 204.106 277.286 203.887 276.885 203.745C276.485 203.605 276.106 203.533 275.747 203.533C275.538 203.533 275.322 203.558 275.101 203.607C274.878 203.657 274.669 203.734 274.471 203.838C274.274 203.943 274.114 204.082 273.991 204.255C273.867 204.427 273.806 204.637 273.806 204.883C273.806 205.278 273.954 205.579 274.25 205.789C274.546 205.999 274.918 206.177 275.369 206.326C275.819 206.474 276.303 206.622 276.821 206.77C277.339 206.918 277.822 207.129 278.273 207.399C278.722 207.67 279.095 208.034 279.391 208.489C279.687 208.946 279.835 209.557 279.835 210.321C279.835 211.049 279.699 211.683 279.429 212.226C279.157 212.769 278.79 213.219 278.329 213.577C277.865 213.934 277.33 214.199 276.718 214.371C276.107 214.543 275.465 214.63 274.786 214.63C273.935 214.63 273.146 214.501 272.418 214.242C271.69 213.983 271.013 213.563 270.383 212.985L272.438 210.727C272.733 211.122 273.106 211.429 273.555 211.643C274.006 211.859 274.471 211.967 274.951 211.967C275.187 211.967 275.425 211.939 275.665 211.883C275.906 211.829 276.121 211.746 276.311 211.634C276.503 211.523 276.658 211.382 276.774 211.209C276.891 211.035 276.95 210.833 276.95 210.598C276.95 210.203 276.799 209.893 276.497 209.665C276.194 209.437 275.815 209.242 275.359 209.082C274.903 208.922 274.41 208.762 273.879 208.602C273.35 208.441 272.855 208.225 272.401 207.954C271.943 207.683 271.563 207.325 271.262 206.881C270.961 206.437 270.809 205.851 270.809 205.123C270.809 204.422 270.949 203.805 271.226 203.274C271.503 202.745 271.873 202.301 272.335 201.943C272.798 201.585 273.331 201.317 273.935 201.138C274.539 200.959 275.162 200.87 275.803 200.87C276.543 200.87 277.258 200.974 277.949 201.185C278.639 201.394 279.262 201.746 279.817 202.238L277.838 204.402Z" fill="#222222"/>
</g>
<mask id="mask22_9_600" style="mask-type:luminance" maskUnits="userSpaceOnUse" x="-379" y="-291" width="1057" height="817">
<path d="M-378.822 -290.547H677.178V525.453H-378.822V-290.547Z" fill="white"/>
</mask>
<g mask="url(#mask22_9_600)">
<path d="M283.785 201.202H292.683V203.865H286.672V206.308H292.349V208.97H286.672V211.634H293.015V214.297H283.785V201.202Z" fill="#222222"/>
</g>
<mask id="mask23_9_600" style="mask-type:luminance" maskUnits="userSpaceOnUse" x="-379" y="-291" width="1057" height="817">
<path d="M-378.822 -290.547H677.178V525.453H-378.822V-290.547Z" fill="white"/>
</mask>
<g mask="url(#mask23_9_600)">
<path d="M14.5192 225.875C14.2352 225.53 13.8872 225.265 13.4738 225.079C13.0605 224.895 12.5832 224.802 12.0405 224.802C11.4978 224.802 10.9952 224.907 10.5338 225.117C10.0712 225.327 9.66974 225.619 9.33114 225.995C8.99114 226.373 8.72574 226.818 8.53514 227.335C8.34444 227.854 8.24844 228.415 8.24844 229.019C8.24844 229.637 8.34444 230.199 8.53514 230.713C8.72574 231.225 8.98844 231.669 9.32174 232.043C9.65374 232.421 10.0458 232.713 10.4952 232.922C10.9472 233.133 11.4298 233.237 11.9485 233.237C12.5405 233.237 13.0645 233.113 13.5192 232.866C13.9765 232.621 14.3525 232.274 14.6485 231.83L17.0525 233.625C16.4965 234.402 15.7952 234.975 14.9432 235.345C14.0938 235.715 13.2178 235.899 12.3178 235.899C11.2952 235.899 10.3512 235.739 9.48844 235.418C8.62444 235.098 7.87914 234.639 7.24974 234.041C6.62174 233.443 6.13244 232.718 5.77914 231.869C5.42714 231.017 5.25244 230.069 5.25244 229.019C5.25244 227.971 5.42714 227.022 5.77914 226.171C6.13244 225.321 6.62174 224.597 7.24974 223.998C7.87914 223.399 8.62444 222.941 9.48844 222.621C10.3512 222.299 11.2952 222.139 12.3178 222.139C12.6885 222.139 13.0725 222.173 13.4738 222.241C13.8738 222.31 14.2685 222.417 14.6578 222.565C15.0472 222.711 15.4178 222.909 15.7765 223.157C16.1325 223.403 16.4538 223.705 16.7378 224.063L14.5192 225.875Z" fill="#222222"/>
</g>
<mask id="mask24_9_600" style="mask-type:luminance" maskUnits="userSpaceOnUse" x="-379" y="-291" width="1057" height="817">
<path d="M-378.822 -290.547H677.178V525.453H-378.822V-290.547Z" fill="white"/>
</mask>
<g mask="url(#mask24_9_600)">
<path d="M21.6085 229.019C21.6085 229.637 21.7045 230.199 21.8952 230.713C22.0859 231.225 22.3592 231.669 22.7179 232.043C23.0752 232.421 23.5045 232.713 24.0032 232.922C24.5032 233.133 25.0605 233.237 25.6779 233.237C26.2939 233.237 26.8512 233.133 27.3512 232.922C27.8499 232.713 28.2792 232.421 28.6379 232.043C28.9939 231.669 29.2685 231.225 29.4605 230.713C29.6512 230.199 29.7472 229.637 29.7472 229.019C29.7472 228.415 29.6512 227.854 29.4605 227.335C29.2685 226.818 28.9939 226.371 28.6379 225.995C28.2792 225.619 27.8499 225.327 27.3512 225.117C26.8512 224.907 26.2939 224.802 25.6779 224.802C25.0605 224.802 24.5032 224.907 24.0032 225.117C23.5045 225.327 23.0752 225.619 22.7179 225.995C22.3592 226.371 22.0859 226.818 21.8952 227.335C21.7045 227.854 21.6085 228.415 21.6085 229.019ZM18.6125 229.019C18.6125 227.971 18.7885 227.022 19.1392 226.171C19.4899 225.321 19.9805 224.597 20.6099 223.998C21.2379 223.399 21.9859 222.941 22.8472 222.621C23.7099 222.299 24.6539 222.139 25.6779 222.139C26.7005 222.139 27.6432 222.299 28.5072 222.621C29.3699 222.941 30.1152 223.399 30.7459 223.998C31.3752 224.597 31.8645 225.321 32.2165 226.171C32.5672 227.022 32.7419 227.971 32.7419 229.019C32.7419 230.069 32.5672 231.017 32.2165 231.867C31.8645 232.718 31.3752 233.443 30.7459 234.041C30.1152 234.639 29.3699 235.098 28.5072 235.418C27.6432 235.739 26.7005 235.899 25.6779 235.899C24.6539 235.899 23.7099 235.739 22.8472 235.418C21.9859 235.098 21.2379 234.639 20.6099 234.041C19.9805 233.443 19.4899 232.718 19.1392 231.867C18.7885 231.017 18.6125 230.069 18.6125 229.019Z" fill="#222222"/>
</g>
<mask id="mask25_9_600" style="mask-type:luminance" maskUnits="userSpaceOnUse" x="-379" y="-291" width="1057" height="817">
<path d="M-378.822 -290.547H677.178V525.453H-378.822V-290.547Z" fill="white"/>
</mask>
<g mask="url(#mask25_9_600)">
<path d="M35.8789 222.472H39.8002L45.3682 231.572H45.4042V222.472H48.2882V235.567H44.5162L38.8016 226.245H38.7656V235.567H35.8789V222.472Z" fill="#222222"/>
</g>
<mask id="mask26_9_600" style="mask-type:luminance" maskUnits="userSpaceOnUse" x="-379" y="-291" width="1057" height="817">
<path d="M-378.822 -290.547H677.178V525.453H-378.822V-290.547Z" fill="white"/>
</mask>
<g mask="url(#mask26_9_600)">
<path d="M54.5462 225.024H50.8102V222.472H61.1675V225.024H57.4315V235.566H54.5462V225.024Z" fill="#222222"/>
</g>
<mask id="mask27_9_600" style="mask-type:luminance" maskUnits="userSpaceOnUse" x="-379" y="-291" width="1057" height="817">
<path d="M-378.822 -290.547H677.178V525.453H-378.822V-290.547Z" fill="white"/>
</mask>
<g mask="url(#mask27_9_600)">
<path d="M66.5833 227.892H68.2847C68.5447 227.892 68.818 227.881 69.1087 227.864C69.398 227.845 69.6593 227.79 69.894 227.697C70.1287 227.604 70.322 227.46 70.4767 227.262C70.63 227.065 70.7073 226.788 70.7073 226.43C70.7073 226.097 70.6393 225.833 70.506 225.636C70.3687 225.438 70.1953 225.286 69.9873 225.181C69.778 225.077 69.5367 225.005 69.266 224.968C68.9927 224.932 68.7287 224.913 68.47 224.913H66.5833V227.892ZM63.698 222.472H68.766C69.4313 222.472 70.0647 222.536 70.662 222.666C71.2593 222.796 71.7833 223.012 72.234 223.313C72.6833 223.616 73.042 224.022 73.306 224.534C73.5713 225.045 73.7047 225.684 73.7047 226.448C73.7047 227.373 73.4633 228.158 72.982 228.806C72.502 229.454 71.7993 229.864 70.874 230.037L74.2033 235.566H70.746L68.0073 230.333H66.5833V235.566H63.698V222.472Z" fill="#222222"/>
</g>
<mask id="mask28_9_600" style="mask-type:luminance" maskUnits="userSpaceOnUse" x="-379" y="-291" width="1057" height="817">
<path d="M-378.822 -290.547H677.178V525.453H-378.822V-290.547Z" fill="white"/>
</mask>
<g mask="url(#mask28_9_600)">
<path d="M78.9713 229.019C78.9713 229.637 79.0673 230.199 79.258 230.713C79.4487 231.225 79.7233 231.669 80.0807 232.043C80.4393 232.421 80.8673 232.713 81.3673 232.922C81.866 233.133 82.423 233.237 83.041 233.237C83.657 233.237 84.214 233.133 84.715 232.922C85.214 232.713 85.642 232.421 86.001 232.043C86.358 231.669 86.633 231.225 86.823 230.713C87.014 230.199 87.11 229.637 87.11 229.019C87.11 228.415 87.014 227.854 86.823 227.335C86.633 226.818 86.358 226.371 86.001 225.995C85.642 225.619 85.214 225.327 84.715 225.117C84.214 224.907 83.657 224.802 83.041 224.802C82.423 224.802 81.866 224.907 81.3673 225.117C80.8673 225.327 80.4393 225.619 80.0807 225.995C79.7233 226.371 79.4487 226.818 79.258 227.335C79.0673 227.854 78.9713 228.415 78.9713 229.019ZM75.9753 229.019C75.9753 227.971 76.1513 227.022 76.502 226.171C76.854 225.321 77.3447 224.597 77.9727 223.998C78.602 223.399 79.3487 222.941 80.2113 222.621C81.074 222.299 82.018 222.139 83.041 222.139C84.065 222.139 85.006 222.299 85.871 222.621C86.733 222.941 87.479 223.399 88.109 223.998C88.738 224.597 89.229 225.321 89.579 226.171C89.93 227.022 90.105 227.971 90.105 229.019C90.105 230.069 89.93 231.017 89.579 231.867C89.229 232.718 88.738 233.443 88.109 234.041C87.479 234.639 86.733 235.098 85.871 235.418C85.006 235.739 84.065 235.899 83.041 235.899C82.018 235.899 81.074 235.739 80.2113 235.418C79.3487 235.098 78.602 234.639 77.9727 234.041C77.3447 233.443 76.854 232.718 76.502 231.867C76.1513 231.017 75.9753 230.069 75.9753 229.019Z" fill="#222222"/>
</g>
<mask id="mask29_9_600" style="mask-type:luminance" maskUnits="userSpaceOnUse" x="-379" y="-291" width="1057" height="817">
<path d="M-378.822 -290.547H677.178V525.453H-378.822V-290.547Z" fill="white"/>
</mask>
<g mask="url(#mask29_9_600)">
<path d="M93.297 222.472H96.184V232.904H101.528V235.567H93.297V222.472Z" fill="#222222"/>
</g>
<mask id="mask30_9_600" style="mask-type:luminance" maskUnits="userSpaceOnUse" x="-379" y="-291" width="1057" height="817">
<path d="M-378.822 -290.547H677.178V525.453H-378.822V-290.547Z" fill="white"/>
</mask>
<g mask="url(#mask30_9_600)">
<path d="M117.342 226.282L115.751 230.351H118.951L117.342 226.282ZM116.232 222.472H118.618L124.315 235.567H121.059L119.931 232.794H114.846L113.754 235.567H110.572L116.232 222.472Z" fill="#222222"/>
</g>
<mask id="mask31_9_600" style="mask-type:luminance" maskUnits="userSpaceOnUse" x="-379" y="-291" width="1057" height="817">
<path d="M-378.822 -290.547H677.178V525.453H-378.822V-290.547Z" fill="white"/>
</mask>
<g mask="url(#mask31_9_600)">
<path d="M126.328 222.472H130.249L135.816 231.572H135.852V222.472H138.737V235.567H134.964L129.25 226.245H129.213V235.567H126.328V222.472Z" fill="#222222"/>
</g>
<mask id="mask32_9_600" style="mask-type:luminance" maskUnits="userSpaceOnUse" x="-379" y="-291" width="1057" height="817">
<path d="M-378.822 -290.547H677.178V525.453H-378.822V-290.547Z" fill="white"/>
</mask>
<g mask="url(#mask32_9_600)">
<path d="M145.47 232.904H146.967C147.634 232.904 148.252 232.836 148.827 232.7C149.4 232.565 149.896 232.339 150.315 232.025C150.735 231.711 151.066 231.297 151.306 230.785C151.544 230.275 151.666 229.648 151.666 228.908C151.666 228.267 151.544 227.709 151.306 227.235C151.066 226.76 150.742 226.368 150.335 226.06C149.927 225.753 149.45 225.52 148.9 225.367C148.352 225.212 147.775 225.135 147.171 225.135H145.47V232.904ZM142.583 222.472H146.914C147.96 222.472 148.956 222.589 149.899 222.823C150.843 223.057 151.666 223.437 152.368 223.961C153.071 224.484 153.63 225.165 154.043 226.004C154.455 226.843 154.662 227.861 154.662 229.057C154.662 230.117 154.46 231.052 154.06 231.859C153.66 232.667 153.122 233.344 152.443 233.893C151.764 234.441 150.982 234.859 150.094 235.141C149.206 235.425 148.276 235.567 147.3 235.567H142.583V222.472Z" fill="#222222"/>
</g>
<mask id="mask33_9_600" style="mask-type:luminance" maskUnits="userSpaceOnUse" x="-379" y="-291" width="1057" height="817">
<path d="M-378.822 -290.547H677.178V525.453H-378.822V-290.547Z" fill="white"/>
</mask>
<g mask="url(#mask33_9_600)">
<path d="M168.312 228.021H170.234C170.494 228.021 170.744 227.997 170.984 227.948C171.225 227.897 171.438 227.814 171.632 227.697C171.822 227.58 171.976 227.42 172.094 227.216C172.21 227.013 172.27 226.757 172.27 226.448C172.27 226.116 172.193 225.848 172.037 225.645C171.882 225.441 171.686 225.284 171.446 225.173C171.205 225.061 170.938 224.99 170.641 224.96C170.345 224.93 170.061 224.913 169.79 224.913H168.312V228.021ZM165.425 222.472H170.29C170.968 222.472 171.609 222.534 172.213 222.657C172.817 222.781 173.345 222.993 173.794 223.296C174.245 223.597 174.602 224.005 174.868 224.516C175.133 225.028 175.265 225.672 175.265 226.448C175.265 227.213 175.142 227.854 174.896 228.372C174.649 228.89 174.309 229.304 173.877 229.612C173.446 229.92 172.936 230.138 172.344 230.269C171.752 230.397 171.11 230.462 170.42 230.462H168.312V235.568H165.425V222.472Z" fill="#222222"/>
</g>
<mask id="mask34_9_600" style="mask-type:luminance" maskUnits="userSpaceOnUse" x="-379" y="-291" width="1057" height="817">
<path d="M-378.822 -290.547H677.178V525.453H-378.822V-290.547Z" fill="white"/>
</mask>
<g mask="url(#mask34_9_600)">
<path d="M180.857 227.892H182.558C182.817 227.892 183.092 227.881 183.381 227.864C183.67 227.845 183.933 227.79 184.168 227.697C184.401 227.604 184.596 227.46 184.749 227.262C184.904 227.065 184.981 226.788 184.981 226.43C184.981 226.097 184.913 225.833 184.778 225.636C184.642 225.438 184.469 225.286 184.26 225.181C184.05 225.077 183.809 225.005 183.538 224.968C183.266 224.932 183.002 224.913 182.744 224.913H180.857V227.892ZM177.97 222.472H183.038C183.705 222.472 184.337 222.536 184.936 222.666C185.533 222.796 186.056 223.012 186.506 223.313C186.957 223.616 187.314 224.022 187.58 224.534C187.845 225.045 187.977 225.684 187.977 226.448C187.977 227.373 187.737 228.158 187.256 228.806C186.774 229.454 186.072 229.864 185.148 230.037L188.477 235.566H185.018L182.28 230.333H180.857V235.566H177.97V222.472Z" fill="#222222"/>
</g>
<mask id="mask35_9_600" style="mask-type:luminance" maskUnits="userSpaceOnUse" x="-379" y="-291" width="1057" height="817">
<path d="M-378.822 -290.547H677.178V525.453H-378.822V-290.547Z" fill="white"/>
</mask>
<g mask="url(#mask35_9_600)">
<path d="M191.263 222.472H200.161V225.135H194.15V227.577H199.827V230.24H194.15V232.904H200.493V235.567H191.263V222.472Z" fill="#222222"/>
</g>
<mask id="mask36_9_600" style="mask-type:luminance" maskUnits="userSpaceOnUse" x="-379" y="-291" width="1057" height="817">
<path d="M-378.822 -290.547H677.178V525.453H-378.822V-290.547Z" fill="white"/>
</mask>
<g mask="url(#mask36_9_600)">
<path d="M201.999 222.472H205.289L208.527 231.055H208.564L211.857 222.472H214.945L209.545 235.567H207.233L201.999 222.472Z" fill="#222222"/>
</g>
<mask id="mask37_9_600" style="mask-type:luminance" maskUnits="userSpaceOnUse" x="-379" y="-291" width="1057" height="817">
<path d="M-378.822 -290.547H677.178V525.453H-378.822V-290.547Z" fill="white"/>
</mask>
<g mask="url(#mask37_9_600)">
<path d="M216.847 222.472H225.745V225.135H219.734V227.577H225.411V230.24H219.734V232.904H226.077V235.567H216.847V222.472Z" fill="#222222"/>
</g>
<mask id="mask38_9_600" style="mask-type:luminance" maskUnits="userSpaceOnUse" x="-379" y="-291" width="1057" height="817">
<path d="M-378.822 -290.547H677.178V525.453H-378.822V-290.547Z" fill="white"/>
</mask>
<g mask="url(#mask38_9_600)">
<path d="M229.538 222.472H233.46L239.028 231.572H239.064V222.472H241.949V235.567H238.176L232.461 226.245H232.425V235.567H229.538V222.472Z" fill="#222222"/>
</g>
<mask id="mask39_9_600" style="mask-type:luminance" maskUnits="userSpaceOnUse" x="-379" y="-291" width="1057" height="817">
<path d="M-378.822 -290.547H677.178V525.453H-378.822V-290.547Z" fill="white"/>
</mask>
<g mask="url(#mask39_9_600)">
<path d="M248.206 225.024H244.47V222.472H254.828V225.024H251.092V235.566H248.206V225.024Z" fill="#222222"/>
</g>
<mask id="mask40_9_600" style="mask-type:luminance" maskUnits="userSpaceOnUse" x="-379" y="-291" width="1057" height="817">
<path d="M-378.822 -290.547H677.178V525.453H-378.822V-290.547Z" fill="white"/>
</mask>
<g mask="url(#mask40_9_600)">
<path d="M257.819 222.472H260.705V235.567H257.819V222.472Z" fill="#222222"/>
</g>
<mask id="mask41_9_600" style="mask-type:luminance" maskUnits="userSpaceOnUse" x="-379" y="-291" width="1057" height="817">
<path d="M-378.822 -290.547H677.178V525.453H-378.822V-290.547Z" fill="white"/>
</mask>
<g mask="url(#mask41_9_600)">
<path d="M266.586 229.019C266.586 229.637 266.682 230.199 266.873 230.713C267.064 231.225 267.338 231.669 267.696 232.043C268.053 232.421 268.481 232.713 268.981 232.922C269.48 233.133 270.038 233.237 270.656 233.237C271.272 233.237 271.829 233.133 272.329 232.922C272.828 232.713 273.257 232.421 273.616 232.043C273.973 231.669 274.246 231.225 274.437 230.713C274.629 230.199 274.725 229.637 274.725 229.019C274.725 228.415 274.629 227.854 274.437 227.335C274.246 226.818 273.973 226.371 273.616 225.995C273.257 225.619 272.828 225.327 272.329 225.117C271.829 224.907 271.272 224.802 270.656 224.802C270.038 224.802 269.48 224.907 268.981 225.117C268.481 225.327 268.053 225.619 267.696 225.995C267.338 226.371 267.064 226.818 266.873 227.335C266.682 227.854 266.586 228.415 266.586 229.019ZM263.589 229.019C263.589 227.971 263.766 227.022 264.117 226.171C264.468 225.321 264.958 224.597 265.588 223.998C266.216 223.399 266.962 222.941 267.825 222.621C268.688 222.299 269.632 222.139 270.656 222.139C271.678 222.139 272.621 222.299 273.485 222.621C274.348 222.941 275.093 223.399 275.724 223.998C276.352 224.597 276.842 225.321 277.194 226.171C277.545 227.022 277.72 227.971 277.72 229.019C277.72 230.069 277.545 231.017 277.194 231.867C276.842 232.718 276.352 233.443 275.724 234.041C275.093 234.639 274.348 235.098 273.485 235.418C272.621 235.739 271.678 235.899 270.656 235.899C269.632 235.899 268.688 235.739 267.825 235.418C266.962 235.098 266.216 234.639 265.588 234.041C264.958 233.443 264.468 232.718 264.117 231.867C263.766 231.017 263.589 230.069 263.589 229.019Z" fill="#222222"/>
</g>
<mask id="mask42_9_600" style="mask-type:luminance" maskUnits="userSpaceOnUse" x="-379" y="-291" width="1057" height="817">
<path d="M-378.822 -290.547H677.178V525.453H-378.822V-290.547Z" fill="white"/>
</mask>
<g mask="url(#mask42_9_600)">
<path d="M280.599 222.472H284.52L290.088 231.572H290.124V222.472H293.009V235.567H289.236L283.521 226.245H283.485V235.567H280.599V222.472Z" fill="#222222"/>
</g>
<mask id="mask43_9_600" style="mask-type:luminance" maskUnits="userSpaceOnUse" x="-379" y="-291" width="1057" height="817">
<path d="M-378.822 -290.547H677.178V525.453H-378.822V-290.547Z" fill="white"/>
</mask>
<g mask="url(#mask43_9_600)">
<path d="M5.89093 184.216H65.0657H265.222C279.606 184.216 291.439 173.282 292.862 159.273C292.956 158.338 293.004 157.39 293.004 156.432V5.65839H68.9403H33.675C24.0843 5.65839 15.6297 10.517 10.6363 17.9077C9.63763 19.3864 8.77763 20.965 8.07493 22.6277C6.66823 25.9517 5.89093 29.6064 5.89093 33.4424V184.216Z" fill="#222222"/>
</g>
<mask id="mask44_9_600" style="mask-type:luminance" maskUnits="userSpaceOnUse" x="-379" y="-291" width="1057" height="817">
<path d="M-378.822 -290.547H677.178V525.453H-378.822V-290.547Z" fill="white"/>
</mask>
<g mask="url(#mask44_9_600)">
<path d="M292.861 159.273C291.439 173.283 279.607 184.215 265.221 184.215H67.1065L218.344 123.111C223.907 125.166 229.677 126.097 234.903 126.097C250.569 126.097 258.857 117.845 260.747 115.701C260.995 115.419 260.992 115.002 260.741 114.723L254.969 108.314L293.005 92.946V156.431C293.005 157.391 292.956 158.338 292.861 159.273ZM35.5799 184.215L121.164 124.29H142.876C166.707 124.29 185.184 110.397 185.184 84.5312C185.184 56.5086 167.812 45.2846 143.716 44.3886L180.611 5.65789H282.396L216.931 46.7539C203.84 52.0419 192.375 63.7632 192.375 84.6832C192.375 103.297 201.54 114.618 212.776 120.614L55.3572 184.215H35.5799ZM5.89184 181.081L39.0692 94.63C42.5812 111.713 55.1052 120.809 67.8399 124.331L13.9199 184.215H5.89184V181.081ZM8.07444 22.6272C8.77714 20.9646 9.63714 19.3859 10.6359 17.9072C15.6292 10.5166 24.0852 5.65789 33.6745 5.65789H68.4999L49.4839 55.2059C42.7332 61.7806 38.0892 71.3686 38.0892 84.6832C38.0892 84.7512 38.0945 84.8166 38.0945 84.8846L5.89184 168.797V33.4419C5.89184 29.6059 6.66784 25.9512 8.07444 22.6272ZM137.701 44.3219H114.808C114.403 44.3219 114.073 44.6499 114.073 45.0552V123.555C114.073 123.657 114.095 123.753 114.132 123.841L27.9079 184.215H19.8412L72.7785 125.423C75.4612 125.874 78.1025 126.097 80.6159 126.097C96.284 126.097 104.572 117.845 106.461 115.701C106.708 115.419 106.707 115.002 106.456 114.723L96.512 103.681C96.243 103.381 95.779 103.351 95.479 103.621C93.737 105.191 87.765 109.915 78.8159 110.065C67.5439 110.253 56.1252 100.903 56.1252 84.6832C56.1252 68.4632 67.9092 59.2992 78.9465 59.2992C87.143 59.2992 92.423 63.1606 94.032 64.5233C94.333 64.7793 94.779 64.7419 95.043 64.4486L105.053 53.3299C105.296 53.0606 105.312 52.6566 105.08 52.3779C103.441 50.4112 96.403 43.2699 80.6159 43.2699C72.7892 43.2699 63.8505 45.2979 56.1919 50.0112L73.2145 5.65789H174.533L137.701 44.3219ZM140.843 108.025H132.428C132.021 108.025 131.693 107.697 131.693 107.291V61.3206C131.693 60.9152 132.021 60.5859 132.428 60.5859H142.085C156.993 60.5859 166.887 67.9272 166.887 83.6272C166.887 101.813 157.22 108.025 140.843 108.025ZM250.797 103.681C250.528 103.381 250.064 103.351 249.764 103.621C248.023 105.191 242.051 109.915 233.101 110.065C221.831 110.253 210.411 100.903 210.411 84.6832C210.411 68.4632 222.195 59.2992 233.232 59.2992C241.429 59.2992 246.708 63.1606 248.317 64.5233C248.619 64.7793 249.064 64.7419 249.328 64.4486L259.339 53.3299C259.581 53.0606 259.597 52.6566 259.365 52.3779C257.727 50.4112 250.688 43.2699 234.903 43.2699C233.436 43.2699 231.927 43.3499 230.397 43.4952L290.673 5.65789H293.005V88.199L251.836 104.833L250.797 103.681ZM33.6745 0.100586C15.2905 0.100586 0.334442 15.0579 0.334442 33.4419V189.773H42.1265H51.3119H265.221C283.605 189.773 298.561 174.817 298.561 156.431V0.100586H33.6745Z" fill="white"/>
</g>
<mask id="mask45_9_600" style="mask-type:luminance" maskUnits="userSpaceOnUse" x="-379" y="-291" width="1057" height="817">
<path d="M-378.822 -290.547H677.178V525.453H-378.822V-290.547Z" fill="white"/>
</mask>
<g mask="url(#mask45_9_600)">
<path d="M290.812 180.17H292.264V184.398H293.04V180.17H294.493V179.458H290.812V180.17Z" fill="#222222"/>
</g>
<mask id="mask46_9_600" style="mask-type:luminance" maskUnits="userSpaceOnUse" x="-379" y="-291" width="1057" height="817">
<path d="M-378.822 -290.547H677.178V525.453H-378.822V-290.547Z" fill="white"/>
</mask>
<g mask="url(#mask46_9_600)">
<path d="M298.719 179.458L297.352 183.208L296.003 179.569L295.961 179.458H295.009V184.398H295.784V181.052L297.019 184.398H297.663L298.891 181.056V184.398H299.665V179.458H298.719Z" fill="#222222"/>
</g>
</g>
</g>
</g>
<defs>
<clipPath id="clip0_9_600">
<rect width="300" height="236" fill="white"/>
</clipPath>
</defs>
</svg>