<svg width="391" height="98" viewBox="0 0 391 98" fill="none" xmlns="http://www.w3.org/2000/svg">
<path d="M49 0C76.062 0 98 21.938 98 49C98 76.062 76.062 98 49 98C21.938 98 0 76.062 0 49C0 21.938 21.938 0 49 0ZM58.7412 9.35742C54.3858 8.13147 48.6961 8.88466 45.8213 12.8594C44.5987 14.55 44.1096 16.5679 44.4678 18.6553C44.8258 20.741 46.0273 22.8864 48.167 24.8428C51.9198 28.2848 60.1926 35.8264 63.8555 38.874C66.3386 40.9664 67.6193 43.6348 67.624 46.0361C67.6285 48.3819 66.4266 50.5735 63.6807 51.9297C61.8119 52.8521 58.6231 54.4256 54.9033 56.2617V45.6357C54.8848 44.2813 54.5263 42.8655 53.7969 41.7529C51.6978 38.552 47.6341 39.4344 44.7695 40.8213C35.2504 45.4305 26.4132 59.5033 27.5371 70.7021C27.6409 71.7339 28.8194 72.1821 29.6484 71.8008C30.1984 71.5476 41.8582 65.7956 51.9668 60.8066V87.8115C51.9669 88.5811 52.6731 89.1959 53.4346 89.1797C54.1962 89.1633 54.9032 88.6505 54.9033 87.8115V59.3574C59.2145 57.2295 62.9716 55.3758 65.0566 54.3467L65.0576 54.3457C68.1494 52.7618 70.5667 49.7901 70.5596 46.0312C70.5532 42.7494 68.8313 39.3761 65.8262 36.8438L65.8193 36.8389C60.4957 32.3531 55.3651 27.6046 50.2256 22.8906C48.4803 21.2954 47.6132 19.689 47.3682 18.2275C46.4769 12.9082 52.8113 11.0831 56.6934 11.7266C56.5145 13.9204 56.7845 15.583 57.4297 16.8828C58.8935 19.8312 62.7416 21.5649 65.4717 19.3682C67.0981 18.0587 67.1857 15.8988 66.0781 14.1865C63.8708 10.7751 60.2305 9.77668 58.7412 9.35742ZM46.124 43.249C49.0526 41.8311 51.9665 41.8283 51.9668 45.9033V57.7109C43.9305 61.6773 34.5176 66.3202 30.415 68.3359C30.8672 58.794 37.8205 47.2698 46.124 43.249ZM67.5645 19.6445C66.92 19.6035 66.7142 20.2122 66.1504 20.5801C65.5865 20.9479 64.6663 21.1056 64.6709 21.8574C64.6728 22.1314 64.8209 22.3971 65.1123 22.5449C66.1416 23.1617 66.967 24.0862 67.7314 25.0215C68.1706 25.522 69.1997 25.4039 69.2627 24.6152C69.3231 23.6791 69.2514 22.6882 68.9854 21.7891C68.7774 21.0866 68.4348 19.7008 67.5645 19.6445ZM59.5859 12.4893C61.0693 13.0683 63.7843 14.5511 63.9023 16.5078C63.9198 16.7993 63.8277 17.0756 63.5518 17.2979C62.9523 17.7801 62.2506 17.7028 61.6055 17.3389C59.897 16.375 59.5068 14.3687 59.5859 12.4893Z" fill="#DC0B5B"/>
<path d="M112.52 61.5V22.3H137.272V26.892H118.12V39.436H135.592V43.916H118.12V56.908H137.272V61.5H112.52ZM154.2 62.172C151.55 62.172 149.235 61.5373 147.256 60.268C145.315 58.9987 143.803 57.2627 142.72 55.06C141.675 52.8573 141.152 50.3747 141.152 47.612C141.152 44.8493 141.675 42.3667 142.72 40.164C143.803 37.9613 145.352 36.2253 147.368 34.956C149.422 33.6867 151.867 33.052 154.704 33.052C157.168 33.052 159.222 33.556 160.864 34.564C162.507 35.572 163.776 36.7107 164.672 37.98V22.3H170.272V61.5H165.568L165.176 56.292H164.952C164.168 57.5987 163.235 58.6813 162.152 59.54C161.07 60.3987 159.856 61.052 158.512 61.5C157.206 61.948 155.768 62.172 154.2 62.172ZM155.712 57.412C157.504 57.412 159.072 57.0013 160.416 56.18C161.76 55.3587 162.787 54.22 163.496 52.764C164.243 51.2707 164.616 49.5533 164.616 47.612C164.616 45.6333 164.243 43.916 163.496 42.46C162.787 41.004 161.76 39.8653 160.416 39.044C159.072 38.2227 157.486 37.812 155.656 37.812C153.864 37.812 152.296 38.2227 150.952 39.044C149.646 39.8653 148.619 41.0227 147.872 42.516C147.163 43.972 146.808 45.6707 146.808 47.612C146.808 49.5533 147.163 51.2707 147.872 52.764C148.619 54.22 149.646 55.3587 150.952 56.18C152.296 57.0013 153.883 57.412 155.712 57.412ZM188.458 62.172C185.732 62.172 183.324 61.5747 181.234 60.38C179.143 59.148 177.5 57.4493 176.306 55.284C175.111 53.1187 174.514 50.58 174.514 47.668C174.514 44.756 175.092 42.2173 176.25 40.052C177.444 37.8493 179.087 36.132 181.178 34.9C183.306 33.668 185.751 33.052 188.514 33.052C191.276 33.052 193.647 33.668 195.626 34.9C197.604 36.0947 199.135 37.6813 200.218 39.66C201.338 41.6387 201.898 43.8413 201.898 46.268C201.898 46.6413 201.898 47.052 201.898 47.5C201.898 47.948 201.86 48.4147 201.786 48.9H178.602V44.98H196.298C196.186 42.5907 195.402 40.7427 193.946 39.436C192.49 38.092 190.66 37.42 188.458 37.42C186.964 37.42 185.564 37.756 184.258 38.428C182.988 39.1 181.962 40.108 181.178 41.452C180.394 42.796 180.002 44.4947 180.002 46.548V48.116C180.002 50.1693 180.394 51.9053 181.178 53.324C181.962 54.7053 182.988 55.7507 184.258 56.46C185.564 57.1693 186.946 57.524 188.402 57.524C190.194 57.524 191.668 57.132 192.826 56.348C194.02 55.5267 194.898 54.4253 195.458 53.044H201.114C200.591 54.7987 199.751 56.3667 198.594 57.748C197.436 59.092 195.999 60.1747 194.282 60.996C192.602 61.78 190.66 62.172 188.458 62.172ZM205.543 61.5V33.724H210.415L210.919 38.148H211.143C212.077 36.58 213.327 35.348 214.895 34.452C216.463 33.5187 218.367 33.052 220.607 33.052C222.773 33.052 224.658 33.5187 226.263 34.452C227.869 35.348 229.101 36.7107 229.959 38.54C230.855 40.3693 231.303 42.684 231.303 45.484V61.5H225.703V46.044C225.703 43.356 225.125 41.3213 223.967 39.94C222.847 38.5213 221.167 37.812 218.927 37.812C217.434 37.812 216.09 38.1853 214.895 38.932C213.738 39.6413 212.823 40.6867 212.151 42.068C211.479 43.4493 211.143 45.1293 211.143 47.108V61.5H205.543ZM244.515 22.3L239.251 35.236H235.331L238.411 22.3H244.515ZM254.916 62.172C252.638 62.172 250.604 61.78 248.812 60.996C247.02 60.212 245.564 59.1293 244.444 57.748C243.361 56.3293 242.708 54.668 242.484 52.764H248.14C248.364 53.6227 248.718 54.444 249.204 55.228C249.726 56.012 250.454 56.6653 251.388 57.188C252.358 57.6733 253.534 57.916 254.916 57.916C256.148 57.916 257.156 57.748 257.94 57.412C258.761 57.0387 259.358 56.5533 259.732 55.956C260.142 55.3587 260.348 54.7053 260.348 53.996C260.348 53.1373 260.068 52.4467 259.508 51.924C258.985 51.364 258.22 50.8973 257.212 50.524C256.241 50.1133 255.065 49.7213 253.684 49.348C252.526 49.012 251.35 48.6573 250.156 48.284C248.961 47.8733 247.878 47.388 246.908 46.828C245.937 46.268 245.153 45.54 244.556 44.644C243.958 43.7107 243.66 42.572 243.66 41.228C243.66 39.6973 244.07 38.316 244.892 37.084C245.75 35.852 246.964 34.8813 248.532 34.172C250.1 33.4253 251.966 33.052 254.132 33.052C257.193 33.052 259.676 33.7987 261.58 35.292C263.521 36.748 264.66 38.8573 264.996 41.62H259.564C259.414 40.2387 258.854 39.1747 257.884 38.428C256.95 37.6813 255.681 37.308 254.076 37.308C252.508 37.308 251.294 37.644 250.436 38.316C249.614 38.988 249.204 39.828 249.204 40.836C249.204 41.508 249.428 42.068 249.876 42.516C250.324 42.964 251.014 43.356 251.948 43.692C252.918 43.9907 254.113 44.364 255.532 44.812C257.324 45.3347 259.004 45.9133 260.572 46.548C262.177 47.1827 263.465 48.0227 264.436 49.068C265.444 50.076 265.948 51.476 265.948 53.268C265.985 54.9853 265.537 56.516 264.604 57.86C263.708 59.204 262.438 60.268 260.796 61.052C259.153 61.7987 257.193 62.172 254.916 62.172ZM290.173 61.5L280.373 22.3H286.197L294.541 57.636H294.765L304.285 22.3H310.445L320.245 57.636H320.469L328.589 22.3H334.413L324.557 61.5H316.045L307.421 30.532H307.197L298.629 61.5H290.173ZM341.616 62.172C339.413 62.172 337.565 61.7987 336.072 61.052C334.616 60.268 333.533 59.2227 332.824 57.916C332.115 56.6093 331.76 55.1907 331.76 53.66C331.76 51.8307 332.227 50.2627 333.16 48.956C334.131 47.6493 335.512 46.6413 337.304 45.932C339.133 45.2227 341.317 44.868 343.856 44.868H351.192C351.192 43.188 350.931 41.8067 350.408 40.724C349.923 39.604 349.195 38.7827 348.224 38.26C347.253 37.7 346.077 37.42 344.696 37.42C342.979 37.42 341.485 37.8493 340.216 38.708C338.984 39.5293 338.237 40.836 337.976 42.628H332.376C332.6 40.5747 333.253 38.8573 334.336 37.476C335.456 36.0573 336.912 34.9747 338.704 34.228C340.496 33.444 342.493 33.052 344.696 33.052C347.347 33.052 349.568 33.5187 351.36 34.452C353.189 35.3853 354.552 36.7107 355.448 38.428C356.344 40.108 356.792 42.1053 356.792 44.42V61.5H352.144L351.584 56.852H351.36C350.837 57.748 350.221 58.532 349.512 59.204C348.803 59.8387 348.037 60.38 347.216 60.828C346.432 61.276 345.555 61.612 344.584 61.836C343.651 62.06 342.661 62.172 341.616 62.172ZM342.96 57.636C344.267 57.636 345.405 57.3933 346.376 56.908C347.384 56.4227 348.224 55.7693 348.896 54.948C349.605 54.0893 350.128 53.1373 350.464 52.092C350.837 51.0467 351.043 49.964 351.08 48.844H344.416C342.773 48.844 341.448 49.0307 340.44 49.404C339.469 49.7773 338.76 50.3 338.312 50.972C337.864 51.644 337.64 52.428 337.64 53.324C337.64 54.1827 337.845 54.948 338.256 55.62C338.704 56.2547 339.32 56.7587 340.104 57.132C340.925 57.468 341.877 57.636 342.96 57.636ZM364.801 72.7L371.297 58.364H369.617L358.417 33.724H364.465L373.369 53.94H373.593L382.329 33.724H388.209L370.681 72.7H364.801Z" fill="#DC0B5B"/>
<path d="M111.48 86.5V72.5H113.16L120.62 83.72V72.5H122.3V86.5H120.62L113.16 75.28V86.5H111.48ZM128.589 86.74C127.816 86.74 127.136 86.5867 126.549 86.28C125.976 85.96 125.529 85.48 125.209 84.84C124.902 84.1867 124.749 83.3667 124.749 82.38V76.58H126.429V82.2C126.429 83.2267 126.642 84 127.069 84.52C127.509 85.04 128.142 85.3 128.969 85.3C129.542 85.3 130.056 85.16 130.509 84.88C130.962 84.6 131.316 84.1933 131.569 83.66C131.836 83.1267 131.969 82.48 131.969 81.72V76.58H133.649V86.5H132.129L132.029 84.72C131.709 85.3467 131.242 85.84 130.629 86.2C130.029 86.56 129.349 86.74 128.589 86.74ZM140.134 86.5C139.534 86.5 139.014 86.4067 138.574 86.22C138.134 86.0333 137.794 85.72 137.554 85.28C137.328 84.8267 137.214 84.22 137.214 83.46V78H135.494V76.58H137.214L137.434 74.2H138.894V76.58H141.814V78H138.894V83.46C138.894 84.0867 139.021 84.5133 139.274 84.74C139.528 84.9533 139.974 85.06 140.614 85.06H141.654V86.5H140.134ZM143.749 86.5V76.58H145.269L145.409 78.5C145.622 78.0467 145.902 77.66 146.249 77.34C146.595 77.02 147.009 76.7733 147.489 76.6C147.969 76.4267 148.515 76.34 149.129 76.34V78.1H148.669C148.229 78.1 147.809 78.16 147.409 78.28C147.022 78.3867 146.675 78.5667 146.369 78.82C146.075 79.0733 145.842 79.42 145.669 79.86C145.509 80.3 145.429 80.8467 145.429 81.5V86.5H143.749ZM150.994 86.5V76.58H152.674V86.5H150.994ZM151.834 74.38C151.501 74.38 151.221 74.2733 150.994 74.06C150.781 73.8333 150.674 73.5533 150.674 73.22C150.674 72.8867 150.781 72.62 150.994 72.42C151.221 72.2067 151.501 72.1 151.834 72.1C152.154 72.1 152.428 72.2067 152.654 72.42C152.881 72.62 152.994 72.8867 152.994 73.22C152.994 73.5533 152.881 73.8333 152.654 74.06C152.428 74.2733 152.154 74.38 151.834 74.38ZM159.32 86.5C158.72 86.5 158.2 86.4067 157.76 86.22C157.32 86.0333 156.98 85.72 156.74 85.28C156.513 84.8267 156.4 84.22 156.4 83.46V78H154.68V76.58H156.4L156.62 74.2H158.08V76.58H161V78H158.08V83.46C158.08 84.0867 158.206 84.5133 158.46 84.74C158.713 84.9533 159.16 85.06 159.8 85.06H160.84V86.5H159.32ZM163.114 86.5V76.58H164.794V86.5H163.114ZM163.954 74.38C163.621 74.38 163.341 74.2733 163.114 74.06C162.901 73.8333 162.794 73.5533 162.794 73.22C162.794 72.8867 162.901 72.62 163.114 72.42C163.341 72.2067 163.621 72.1 163.954 72.1C164.274 72.1 164.547 72.2067 164.774 72.42C165.001 72.62 165.114 72.8867 165.114 73.22C165.114 73.5533 165.001 73.8333 164.774 74.06C164.547 74.2733 164.274 74.38 163.954 74.38ZM172.039 86.74C171.106 86.74 170.266 86.5267 169.519 86.1C168.772 85.6733 168.179 85.0733 167.739 84.3C167.312 83.5133 167.099 82.5933 167.099 81.54C167.099 80.4867 167.319 79.5733 167.759 78.8C168.199 78.0133 168.792 77.4067 169.539 76.98C170.299 76.5533 171.146 76.34 172.079 76.34C173.012 76.34 173.852 76.5533 174.599 76.98C175.346 77.4067 175.932 78.0133 176.359 78.8C176.799 79.5733 177.019 80.4867 177.019 81.54C177.019 82.5933 176.799 83.5133 176.359 84.3C175.919 85.0733 175.319 85.6733 174.559 86.1C173.812 86.5267 172.972 86.74 172.039 86.74ZM172.039 85.3C172.612 85.3 173.146 85.16 173.639 84.88C174.132 84.6 174.532 84.18 174.839 83.62C175.146 83.06 175.299 82.3667 175.299 81.54C175.299 80.7 175.146 80.0067 174.839 79.46C174.546 78.9 174.152 78.48 173.659 78.2C173.166 77.92 172.639 77.78 172.079 77.78C171.519 77.78 170.986 77.92 170.479 78.2C169.986 78.48 169.586 78.9 169.279 79.46C168.972 80.0067 168.819 80.7 168.819 81.54C168.819 82.3667 168.972 83.06 169.279 83.62C169.586 84.18 169.979 84.6 170.459 84.88C170.952 85.16 171.479 85.3 172.039 85.3ZM179.155 86.5V76.58H180.675L180.775 78.36C181.095 77.7333 181.555 77.24 182.155 76.88C182.755 76.52 183.435 76.34 184.195 76.34C184.982 76.34 185.662 76.5 186.235 76.82C186.808 77.1267 187.255 77.6067 187.575 78.26C187.895 78.9 188.055 79.7133 188.055 80.7V86.5H186.375V80.88C186.375 79.8533 186.155 79.08 185.715 78.56C185.275 78.04 184.642 77.78 183.815 77.78C183.242 77.78 182.728 77.92 182.275 78.2C181.835 78.48 181.482 78.8867 181.215 79.42C180.962 79.94 180.835 80.5867 180.835 81.36V86.5H179.155ZM193.7 86.74C192.874 86.74 192.187 86.6 191.64 86.32C191.094 86.04 190.687 85.6667 190.42 85.2C190.154 84.7333 190.02 84.2267 190.02 83.68C190.02 83 190.194 82.4267 190.54 81.96C190.9 81.4933 191.4 81.14 192.04 80.9C192.694 80.6467 193.46 80.52 194.34 80.52H197.02C197.02 79.9067 196.92 79.4 196.72 79C196.52 78.5867 196.234 78.28 195.86 78.08C195.487 77.8667 195.04 77.76 194.52 77.76C193.867 77.76 193.3 77.9267 192.82 78.26C192.34 78.58 192.047 79.0533 191.94 79.68H190.22C190.3 78.96 190.547 78.3533 190.96 77.86C191.374 77.3667 191.894 76.9933 192.52 76.74C193.16 76.4733 193.827 76.34 194.52 76.34C195.44 76.34 196.207 76.5133 196.82 76.86C197.447 77.1933 197.914 77.6667 198.22 78.28C198.54 78.88 198.7 79.5867 198.7 80.4V86.5H197.2L197.1 84.72C196.967 85 196.794 85.2667 196.58 85.52C196.38 85.76 196.14 85.9733 195.86 86.16C195.594 86.3333 195.28 86.4733 194.92 86.58C194.56 86.6867 194.154 86.74 193.7 86.74ZM193.96 85.32C194.44 85.32 194.867 85.2267 195.24 85.04C195.627 84.84 195.954 84.5733 196.22 84.24C196.487 83.9067 196.687 83.5333 196.82 83.12C196.954 82.7067 197.02 82.28 197.02 81.84V81.82H194.48C193.827 81.82 193.3 81.9 192.9 82.06C192.5 82.2067 192.214 82.4133 192.04 82.68C191.867 82.9467 191.78 83.2533 191.78 83.6C191.78 83.9467 191.86 84.2533 192.02 84.52C192.194 84.7733 192.44 84.9733 192.76 85.12C193.094 85.2533 193.494 85.32 193.96 85.32ZM201.04 86.5V72.1H202.72V86.5H201.04ZM216.607 86.74C215.233 86.74 214.047 86.44 213.047 85.84C212.047 85.2267 211.273 84.38 210.727 83.3C210.193 82.2067 209.927 80.94 209.927 79.5C209.927 78.06 210.193 76.8 210.727 75.72C211.273 74.6267 212.047 73.78 213.047 73.18C214.047 72.5667 215.233 72.26 216.607 72.26C218.22 72.26 219.527 72.64 220.527 73.4C221.527 74.16 222.167 75.2333 222.447 76.62H220.587C220.373 75.7533 219.94 75.06 219.287 74.54C218.633 74.0067 217.74 73.74 216.607 73.74C215.607 73.74 214.733 73.9733 213.987 74.44C213.24 74.8933 212.66 75.5533 212.247 76.42C211.847 77.2733 211.647 78.3 211.647 79.5C211.647 80.7 211.847 81.7333 212.247 82.6C212.66 83.4533 213.24 84.1133 213.987 84.58C214.733 85.0333 215.607 85.26 216.607 85.26C217.74 85.26 218.633 85.0067 219.287 84.5C219.94 83.98 220.373 83.2933 220.587 82.44H222.447C222.167 83.7867 221.527 84.84 220.527 85.6C219.527 86.36 218.22 86.74 216.607 86.74ZM229.081 86.74C228.148 86.74 227.308 86.5267 226.561 86.1C225.815 85.6733 225.221 85.0733 224.781 84.3C224.355 83.5133 224.141 82.5933 224.141 81.54C224.141 80.4867 224.361 79.5733 224.801 78.8C225.241 78.0133 225.835 77.4067 226.581 76.98C227.341 76.5533 228.188 76.34 229.121 76.34C230.055 76.34 230.895 76.5533 231.641 76.98C232.388 77.4067 232.975 78.0133 233.401 78.8C233.841 79.5733 234.061 80.4867 234.061 81.54C234.061 82.5933 233.841 83.5133 233.401 84.3C232.961 85.0733 232.361 85.6733 231.601 86.1C230.855 86.5267 230.015 86.74 229.081 86.74ZM229.081 85.3C229.655 85.3 230.188 85.16 230.681 84.88C231.175 84.6 231.575 84.18 231.881 83.62C232.188 83.06 232.341 82.3667 232.341 81.54C232.341 80.7 232.188 80.0067 231.881 79.46C231.588 78.9 231.195 78.48 230.701 78.2C230.208 77.92 229.681 77.78 229.121 77.78C228.561 77.78 228.028 77.92 227.521 78.2C227.028 78.48 226.628 78.9 226.321 79.46C226.015 80.0067 225.861 80.7 225.861 81.54C225.861 82.3667 226.015 83.06 226.321 83.62C226.628 84.18 227.021 84.6 227.501 84.88C227.995 85.16 228.521 85.3 229.081 85.3ZM236.197 86.5V76.58H237.717L237.817 78.36C238.137 77.7333 238.597 77.24 239.197 76.88C239.797 76.52 240.477 76.34 241.237 76.34C242.024 76.34 242.704 76.5 243.277 76.82C243.851 77.1267 244.297 77.6067 244.617 78.26C244.937 78.9 245.097 79.7133 245.097 80.7V86.5H243.417V80.88C243.417 79.8533 243.197 79.08 242.757 78.56C242.317 78.04 241.684 77.78 240.857 77.78C240.284 77.78 239.771 77.92 239.317 78.2C238.877 78.48 238.524 78.8867 238.257 79.42C238.004 79.94 237.877 80.5867 237.877 81.36V86.5H236.197ZM251.243 86.74C250.456 86.74 249.749 86.6067 249.123 86.34C248.496 86.06 247.989 85.6733 247.603 85.18C247.229 84.6733 246.996 84.08 246.903 83.4H248.623C248.703 83.7467 248.849 84.0667 249.063 84.36C249.289 84.6533 249.583 84.8867 249.943 85.06C250.316 85.2333 250.756 85.32 251.263 85.32C251.743 85.32 252.129 85.2533 252.423 85.12C252.729 84.9733 252.956 84.7867 253.103 84.56C253.249 84.32 253.323 84.0667 253.323 83.8C253.323 83.4 253.223 83.1 253.023 82.9C252.836 82.6867 252.556 82.52 252.183 82.4C251.809 82.28 251.363 82.1667 250.843 82.06C250.443 81.98 250.036 81.8733 249.623 81.74C249.209 81.6067 248.829 81.44 248.483 81.24C248.149 81.0267 247.876 80.7667 247.663 80.46C247.463 80.14 247.363 79.7533 247.363 79.3C247.363 78.7267 247.509 78.22 247.803 77.78C248.096 77.3267 248.509 76.9733 249.043 76.72C249.589 76.4667 250.229 76.34 250.963 76.34C252.016 76.34 252.876 76.6 253.543 77.12C254.223 77.64 254.616 78.3933 254.723 79.38H253.063C253.009 78.8733 252.796 78.48 252.423 78.2C252.063 77.9067 251.569 77.76 250.943 77.76C250.329 77.76 249.863 77.8867 249.543 78.14C249.223 78.3933 249.063 78.7267 249.063 79.14C249.063 79.3933 249.156 79.62 249.343 79.82C249.529 80.0067 249.796 80.1667 250.143 80.3C250.503 80.4333 250.923 80.5533 251.403 80.66C252.029 80.7933 252.616 80.96 253.163 81.16C253.709 81.3467 254.156 81.6333 254.503 82.02C254.863 82.3933 255.043 82.94 255.043 83.66C255.056 84.26 254.903 84.7933 254.583 85.26C254.276 85.7267 253.836 86.0933 253.263 86.36C252.703 86.6133 252.029 86.74 251.243 86.74ZM260.863 86.74C260.089 86.74 259.409 86.5867 258.823 86.28C258.249 85.96 257.803 85.48 257.483 84.84C257.176 84.1867 257.023 83.3667 257.023 82.38V76.58H258.703V82.2C258.703 83.2267 258.916 84 259.343 84.52C259.783 85.04 260.416 85.3 261.243 85.3C261.816 85.3 262.329 85.16 262.783 84.88C263.236 84.6 263.589 84.1933 263.843 83.66C264.109 83.1267 264.243 82.48 264.243 81.72V76.58H265.923V86.5H264.403L264.303 84.72C263.983 85.3467 263.516 85.84 262.903 86.2C262.303 86.56 261.623 86.74 260.863 86.74ZM268.488 86.5V72.1H270.168V86.5H268.488ZM276.641 86.5C276.041 86.5 275.521 86.4067 275.081 86.22C274.641 86.0333 274.301 85.72 274.061 85.28C273.835 84.8267 273.721 84.22 273.721 83.46V78H272.001V76.58H273.721L273.941 74.2H275.401V76.58H278.321V78H275.401V83.46C275.401 84.0867 275.528 84.5133 275.781 84.74C276.035 84.9533 276.481 85.06 277.121 85.06H278.161V86.5H276.641ZM283.556 86.74C282.729 86.74 282.042 86.6 281.496 86.32C280.949 86.04 280.542 85.6667 280.276 85.2C280.009 84.7333 279.876 84.2267 279.876 83.68C279.876 83 280.049 82.4267 280.396 81.96C280.756 81.4933 281.256 81.14 281.896 80.9C282.549 80.6467 283.316 80.52 284.196 80.52H286.876C286.876 79.9067 286.776 79.4 286.576 79C286.376 78.5867 286.089 78.28 285.716 78.08C285.342 77.8667 284.896 77.76 284.376 77.76C283.722 77.76 283.156 77.9267 282.676 78.26C282.196 78.58 281.902 79.0533 281.796 79.68H280.076C280.156 78.96 280.402 78.3533 280.816 77.86C281.229 77.3667 281.749 76.9933 282.376 76.74C283.016 76.4733 283.682 76.34 284.376 76.34C285.296 76.34 286.062 76.5133 286.676 76.86C287.302 77.1933 287.769 77.6667 288.076 78.28C288.396 78.88 288.556 79.5867 288.556 80.4V86.5H287.056L286.956 84.72C286.822 85 286.649 85.2667 286.436 85.52C286.236 85.76 285.996 85.9733 285.716 86.16C285.449 86.3333 285.136 86.4733 284.776 86.58C284.416 86.6867 284.009 86.74 283.556 86.74ZM283.816 85.32C284.296 85.32 284.722 85.2267 285.096 85.04C285.482 84.84 285.809 84.5733 286.076 84.24C286.342 83.9067 286.542 83.5333 286.676 83.12C286.809 82.7067 286.876 82.28 286.876 81.84V81.82H284.336C283.682 81.82 283.156 81.9 282.756 82.06C282.356 82.2067 282.069 82.4133 281.896 82.68C281.722 82.9467 281.636 83.2533 281.636 83.6C281.636 83.9467 281.716 84.2533 281.876 84.52C282.049 84.7733 282.296 84.9733 282.616 85.12C282.949 85.2533 283.349 85.32 283.816 85.32ZM294.542 86.5C293.942 86.5 293.422 86.4067 292.982 86.22C292.542 86.0333 292.202 85.72 291.962 85.28C291.736 84.8267 291.622 84.22 291.622 83.46V78H289.902V76.58H291.622L291.842 74.2H293.302V76.58H296.222V78H293.302V83.46C293.302 84.0867 293.429 84.5133 293.682 84.74C293.936 84.9533 294.382 85.06 295.022 85.06H296.062V86.5H294.542ZM298.337 86.5V76.58H300.017V86.5H298.337ZM299.177 74.38C298.843 74.38 298.563 74.2733 298.337 74.06C298.123 73.8333 298.017 73.5533 298.017 73.22C298.017 72.8867 298.123 72.62 298.337 72.42C298.563 72.2067 298.843 72.1 299.177 72.1C299.497 72.1 299.77 72.2067 299.997 72.42C300.223 72.62 300.337 72.8867 300.337 73.22C300.337 73.5533 300.223 73.8333 299.997 74.06C299.77 74.2733 299.497 74.38 299.177 74.38ZM307.262 86.74C306.328 86.74 305.488 86.5267 304.742 86.1C303.995 85.6733 303.402 85.0733 302.962 84.3C302.535 83.5133 302.322 82.5933 302.322 81.54C302.322 80.4867 302.542 79.5733 302.982 78.8C303.422 78.0133 304.015 77.4067 304.762 76.98C305.522 76.5533 306.368 76.34 307.302 76.34C308.235 76.34 309.075 76.5533 309.822 76.98C310.568 77.4067 311.155 78.0133 311.582 78.8C312.022 79.5733 312.242 80.4867 312.242 81.54C312.242 82.5933 312.022 83.5133 311.582 84.3C311.142 85.0733 310.542 85.6733 309.782 86.1C309.035 86.5267 308.195 86.74 307.262 86.74ZM307.262 85.3C307.835 85.3 308.368 85.16 308.862 84.88C309.355 84.6 309.755 84.18 310.062 83.62C310.368 83.06 310.522 82.3667 310.522 81.54C310.522 80.7 310.368 80.0067 310.062 79.46C309.768 78.9 309.375 78.48 308.882 78.2C308.388 77.92 307.862 77.78 307.302 77.78C306.742 77.78 306.208 77.92 305.702 78.2C305.208 78.48 304.808 78.9 304.502 79.46C304.195 80.0067 304.042 80.7 304.042 81.54C304.042 82.3667 304.195 83.06 304.502 83.62C304.808 84.18 305.202 84.6 305.682 84.88C306.175 85.16 306.702 85.3 307.262 85.3ZM314.378 86.5V76.58H315.898L315.998 78.36C316.318 77.7333 316.778 77.24 317.378 76.88C317.978 76.52 318.658 76.34 319.418 76.34C320.204 76.34 320.884 76.5 321.458 76.82C322.031 77.1267 322.478 77.6067 322.798 78.26C323.118 78.9 323.278 79.7133 323.278 80.7V86.5H321.598V80.88C321.598 79.8533 321.378 79.08 320.938 78.56C320.498 78.04 319.864 77.78 319.038 77.78C318.464 77.78 317.951 77.92 317.498 78.2C317.058 78.48 316.704 78.8867 316.438 79.42C316.184 79.94 316.058 80.5867 316.058 81.36V86.5H314.378Z" fill="black"/>
</svg>