<svg width="74" height="74" viewBox="0 0 74 74" fill="none" xmlns="http://www.w3.org/2000/svg">
<path d="M37 0C57.4346 0 74 16.5654 74 37C74 57.4346 57.4346 74 37 74C16.5654 74 0 57.4346 0 37C0 16.5654 16.5654 0 37 0ZM44.3556 7.06581C41.0668 6.14009 36.7705 6.70882 34.5998 9.71016C33.6766 10.9867 33.3072 12.5105 33.5777 14.0867C33.848 15.6616 34.7553 17.2816 36.371 18.7588C39.2047 21.3579 45.4515 27.0526 48.2174 29.3538C50.0924 30.9338 51.0595 32.9487 51.063 34.762C51.0664 36.5333 50.1588 38.1882 48.0854 39.2122C46.6743 39.9087 44.2664 41.0969 41.4576 42.4833V34.4596C41.4436 33.4369 41.1729 32.3678 40.6221 31.5277C39.0371 29.1107 35.9686 29.777 33.8055 30.8242C26.6176 34.3047 19.9447 44.9311 20.7933 53.3873C20.8717 54.1664 21.7616 54.5048 22.3876 54.2169C22.8029 54.0257 31.6072 49.6824 39.2402 45.9152V66.3066C39.2403 66.8878 39.7736 67.352 40.3486 67.3398C40.9237 67.3274 41.4575 66.9402 41.4576 66.3066V44.8209C44.713 43.2141 47.55 41.8144 49.1244 41.0373L49.1251 41.0365C51.4597 39.8405 53.285 37.5966 53.2797 34.7583C53.2749 32.2802 51.9746 29.733 49.7055 27.8208L49.7003 27.8171C45.6804 24.4299 41.8063 20.8443 37.9254 17.2847C36.6076 16.0802 35.9528 14.8672 35.7678 13.7636C35.0948 9.74701 39.8779 8.36887 42.8093 8.85478C42.6742 10.5113 42.8781 11.7668 43.3653 12.7482C44.4706 14.9746 47.3763 16.2837 49.4378 14.625C50.6659 13.6362 50.732 12.0052 49.8957 10.7123C48.229 8.1363 45.4802 7.38239 44.3556 7.06581ZM34.8283 32.6574C37.0397 31.5868 39.24 31.5846 39.2402 34.6617V43.5776C33.172 46.5727 26.0643 50.0785 22.9664 51.6006C23.3079 44.3955 28.5583 35.6935 34.8283 32.6574ZM51.0181 14.8336C50.5314 14.8026 50.376 15.2623 49.9503 15.5401C49.5245 15.8178 48.8296 15.9369 48.8331 16.5046C48.8345 16.7115 48.9464 16.9121 49.1664 17.0237C49.9436 17.4894 50.5669 18.1875 51.1441 18.8938C51.4757 19.2717 52.2528 19.1825 52.3004 18.587C52.346 17.8801 52.2919 17.1319 52.091 16.453C51.9339 15.9225 51.6752 14.8761 51.0181 14.8336ZM44.9934 9.4307C46.1135 9.8679 48.1636 10.9876 48.2527 12.4651C48.266 12.6852 48.1964 12.8938 47.9881 13.0617C47.5354 13.4258 47.0055 13.3674 46.5184 13.0926C45.2283 12.3648 44.9337 10.8498 44.9934 9.4307Z" fill="#DC0B5B"/>
</svg>